<svg xmlns="http://www.w3.org/2000/svg" viewBox="0 0 60 60" width="60" height="60">
  <defs>
    <radialGradient id="ckg" cx="42%" cy="38%" r="58%">
      <stop offset="0%" stop-color="#F0D090"/>
      <stop offset="40%" stop-color="#E0B868"/>
      <stop offset="80%" stop-color="#C89840"/>
      <stop offset="100%" stop-color="#A07828"/>
    </radialGradient>
    <radialGradient id="ckh" cx="35%" cy="30%" r="30%">
      <stop offset="0%" stop-color="#FFFFFF" stop-opacity="0.3"/>
      <stop offset="100%" stop-color="#FFFFFF" stop-opacity="0"/>
    </radialGradient>
  </defs>
  <!-- Cookie body - slightly irregular circle -->
  <path d="M 30,3 C 42,2 54,8 57,18 C 60,28 58,40 52,48 
           C 46,56 36,58 28,57 C 18,56 8,48 4,38 
           C 0,28 2,14 10,7 C 18,2 24,3 30,3 Z" 
        fill="url(#ckg)" stroke="#907028" stroke-width="1.2"/>
  <!-- Bumpy edge texture -->
  <path d="M 30,3 C 42,2 54,8 57,18 C 60,28 58,40 52,48 
           C 46,56 36,58 28,57 C 18,56 8,48 4,38 
           C 0,28 2,14 10,7 C 18,2 24,3 30,3 Z" 
        fill="none" stroke="#B08838" stroke-width="0.6" stroke-dasharray="4 3" opacity="0.4"/>
  <!-- Chocolate chips embedded -->
  <ellipse cx="18" cy="20" rx="5" ry="3.8" fill="#3E1A0A" opacity="0.85" transform="rotate(-12 18 20)"/>
  <ellipse cx="17" cy="19" rx="3" ry="1.5" fill="#5C3018" opacity="0.3" transform="rotate(-12 17 19)"/>
  <ellipse cx="38" cy="16" rx="4.5" ry="3.5" fill="#3E1A0A" opacity="0.8" transform="rotate(18 38 16)"/>
  <ellipse cx="37" cy="15" rx="2.5" ry="1.3" fill="#5C3018" opacity="0.3" transform="rotate(18 37 15)"/>
  <ellipse cx="24" cy="38" rx="5" ry="3.5" fill="#3E1A0A" opacity="0.85" transform="rotate(-25 24 38)"/>
  <ellipse cx="23" cy="37" rx="2.8" ry="1.4" fill="#5C3018" opacity="0.3" transform="rotate(-25 23 37)"/>
  <ellipse cx="42" cy="34" rx="4" ry="3" fill="#3E1A0A" opacity="0.78" transform="rotate(14 42 34)"/>
  <ellipse cx="30" cy="50" rx="4.5" ry="3.2" fill="#3E1A0A" opacity="0.82" transform="rotate(-8 30 50)"/>
  <ellipse cx="29" cy="49" rx="2.5" ry="1.2" fill="#5C3018" opacity="0.3" transform="rotate(-8 29 49)"/>
  <!-- Highlight -->
  <path d="M 20,10 C 28,6 36,12 30,20 C 24,26 14,18 20,10 Z" fill="url(#ckh)"/>
  <!-- Crumble bits -->
  <circle cx="2" cy="30" r="1.8" fill="#C89840" opacity="0.5"/>
  <circle cx="56" cy="42" r="1.5" fill="#C89840" opacity="0.4"/>
</svg>
