<svg xmlns="http://www.w3.org/2000/svg" viewBox="0 0 120 110" width="120" height="110">
  <defs>
    <radialGradient id="cg1" cx="38%" cy="32%" r="62%">
      <stop offset="0%" stop-color="#7B4828"/>
      <stop offset="30%" stop-color="#6B3A1C"/>
      <stop offset="60%" stop-color="#5A2E14"/>
      <stop offset="100%" stop-color="#3E1C08"/>
    </radialGradient>
    <radialGradient id="ch1" cx="30%" cy="22%" r="25%">
      <stop offset="0%" stop-color="#FFFFFF" stop-opacity="0.4"/>
      <stop offset="100%" stop-color="#FFFFFF" stop-opacity="0"/>
    </radialGradient>
    <radialGradient id="csh" cx="60%" cy="70%" r="35%">
      <stop offset="0%" stop-color="#1A0A02" stop-opacity="0.3"/>
      <stop offset="100%" stop-color="#1A0A02" stop-opacity="0"/>
    </radialGradient>
  </defs>
  <!-- Main scoop blob -->
  <path d="M 58,8 C 80,5 102,18 108,36 C 114,52 106,66 98,74 
           C 92,80 84,86 76,90 Q 66,94 56,92 
           C 42,88 28,78 20,66 C 12,52 12,36 20,24 
           C 28,12 42,6 58,8 Z" 
        fill="url(#cg1)" stroke="#2E1408" stroke-width="1.3"/>
  <!-- Fudgy texture lumps -->
  <path d="M 38,20 C 48,14 62,20 56,32 C 50,40 32,32 38,20 Z" fill="#7B4828" opacity="0.5"/>
  <path d="M 68,22 C 82,20 92,32 84,42 C 76,48 60,38 68,22 Z" fill="#6B3A1C" opacity="0.45"/>
  <path d="M 26,44 C 36,38 52,44 46,56 C 40,64 22,56 26,44 Z" fill="#5A2E14" opacity="0.4"/>
  <path d="M 70,50 C 84,44 98,56 88,66 C 80,72 64,62 70,50 Z" fill="#5A2E14" opacity="0.4"/>
  <path d="M 46,64 C 58,58 74,66 66,76 C 58,82 40,74 46,64 Z" fill="#4A2210" opacity="0.35"/>
  <!-- Melty drips -->
  <path d="M 94,70 Q 100,80 96,92 Q 94,96 90,94 Q 92,84 90,76 Z" fill="#4A2210" opacity="0.6" stroke="#2E1408" stroke-width="0.6"/>
  <path d="M 28,70 Q 24,80 26,90 Q 28,94 32,90 Q 30,82 32,76 Z" fill="#4A2210" opacity="0.5" stroke="#2E1408" stroke-width="0.6"/>
  <!-- Rich chocolate sheen/highlight -->
  <path d="M 40,16 C 52,10 64,18 56,30 C 48,38 34,26 40,16 Z" fill="url(#ch1)"/>
  <!-- Glossy sheen streaks -->
  <path d="M 50,28 Q 62,24 70,30" fill="none" stroke="#8B5838" stroke-width="2" stroke-linecap="round" opacity="0.3"/>
  <path d="M 44,40 Q 54,36 62,42" fill="none" stroke="#8B5838" stroke-width="1.5" stroke-linecap="round" opacity="0.25"/>
  <!-- Bottom shadow -->
  <path d="M 58,8 C 80,5 102,18 108,36 C 114,52 106,66 98,74 
           C 92,80 84,86 76,90 Q 66,94 56,92 
           C 42,88 28,78 20,66 C 12,52 12,36 20,24 
           C 28,12 42,6 58,8 Z" 
        fill="url(#csh)"/>
</svg>
