<svg xmlns="http://www.w3.org/2000/svg" viewBox="0 0 120 110" width="120" height="110">
  <defs>
    <radialGradient id="sg" cx="38%" cy="32%" r="62%">
      <stop offset="0%" stop-color="#F8B0C0"/>
      <stop offset="30%" stop-color="#F098AC"/>
      <stop offset="60%" stop-color="#E07890"/>
      <stop offset="100%" stop-color="#C85878"/>
    </radialGradient>
    <radialGradient id="sh" cx="30%" cy="22%" r="25%">
      <stop offset="0%" stop-color="#FFFFFF" stop-opacity="0.6"/>
      <stop offset="100%" stop-color="#FFFFFF" stop-opacity="0"/>
    </radialGradient>
    <radialGradient id="ss" cx="60%" cy="70%" r="35%">
      <stop offset="0%" stop-color="#802040" stop-opacity="0.25"/>
      <stop offset="100%" stop-color="#802040" stop-opacity="0"/>
    </radialGradient>
  </defs>
  <!-- Main scoop blob -->
  <path d="M 60,8 C 84,4 104,20 108,38 C 112,54 104,68 96,76 
           C 88,82 80,88 72,90 Q 62,94 52,92 
           C 38,88 24,76 18,64 C 10,50 12,34 20,22 
           C 30,10 44,6 60,8 Z" 
        fill="url(#sg)" stroke="#B04868" stroke-width="1.2"/>
  <!-- Creamy texture lumps -->
  <path d="M 36,18 C 46,12 60,18 54,30 C 48,38 30,30 36,18 Z" fill="#F8B8C8" opacity="0.5"/>
  <path d="M 66,16 C 80,14 92,28 84,38 C 76,44 58,34 66,16 Z" fill="#F0A8B8" opacity="0.45"/>
  <path d="M 26,40 C 36,34 52,42 46,54 C 40,62 22,52 26,40 Z" fill="#E890A4" opacity="0.4"/>
  <path d="M 70,48 C 84,42 96,56 88,66 C 80,72 64,60 70,48 Z" fill="#E08898" opacity="0.38"/>
  <path d="M 48,62 C 58,56 72,64 66,74 C 58,82 40,72 48,62 Z" fill="#D87888" opacity="0.3"/>
  <!-- Melty drip -->
  <path d="M 90,72 Q 96,82 92,92 Q 90,96 86,92 Q 88,84 86,76 Z" fill="#E08898" opacity="0.5" stroke="#B04868" stroke-width="0.6"/>
  <!-- Strawberry fruit chunks -->
  <g>
    <ellipse cx="38" cy="50" rx="6" ry="4.5" fill="#C03050" opacity="0.7" transform="rotate(-15 38 50)"/>
    <path d="M 36,48 L 38,46 L 40,48" fill="none" stroke="#80203" stroke-width="0.5" opacity="0.3"/>
    <ellipse cx="70" cy="38" rx="5" ry="4" fill="#B82848" opacity="0.65" transform="rotate(20 70 38)"/>
    <ellipse cx="56" cy="72" rx="5.5" ry="4" fill="#C03050" opacity="0.6" transform="rotate(-8 56 72)"/>
    <ellipse cx="82" cy="60" rx="4.5" ry="3.5" fill="#B82848" opacity="0.55" transform="rotate(12 82 60)"/>
    <ellipse cx="44" cy="32" rx="4" ry="3" fill="#C03050" opacity="0.5" transform="rotate(-20 44 32)"/>
    <!-- Seed details on chunks -->
    <circle cx="37" cy="52" r="0.6" fill="#FFE0A0" opacity="0.5"/>
    <circle cx="40" cy="49" r="0.5" fill="#FFE0A0" opacity="0.4"/>
    <circle cx="69" cy="40" r="0.5" fill="#FFE0A0" opacity="0.45"/>
    <circle cx="72" cy="37" r="0.6" fill="#FFE0A0" opacity="0.4"/>
  </g>
  <!-- Highlight -->
  <path d="M 40,14 C 52,8 64,16 56,28 C 48,36 34,24 40,14 Z" fill="url(#sh)"/>
  <!-- Bottom shadow -->
  <path d="M 60,8 C 84,4 104,20 108,38 C 112,54 104,68 96,76 
           C 88,82 80,88 72,90 Q 62,94 52,92 
           C 38,88 24,76 18,64 C 10,50 12,34 20,22 
           C 30,10 44,6 60,8 Z" 
        fill="url(#ss)"/>
</svg>
