<svg xmlns="http://www.w3.org/2000/svg" viewBox="0 0 120 110" width="120" height="110">
  <defs>
    <radialGradient id="vg" cx="38%" cy="32%" r="62%">
      <stop offset="0%" stop-color="#FFFEF0"/>
      <stop offset="25%" stop-color="#FFF8DA"/>
      <stop offset="55%" stop-color="#F5E8B0"/>
      <stop offset="100%" stop-color="#E0CC80"/>
    </radialGradient>
    <radialGradient id="vh" cx="32%" cy="25%" r="28%">
      <stop offset="0%" stop-color="#FFFFFF" stop-opacity="0.8"/>
      <stop offset="100%" stop-color="#FFFFFF" stop-opacity="0"/>
    </radialGradient>
    <radialGradient id="vs" cx="65%" cy="70%" r="40%">
      <stop offset="0%" stop-color="#C8B060" stop-opacity="0.25"/>
      <stop offset="100%" stop-color="#C8B060" stop-opacity="0"/>
    </radialGradient>
    <filter id="softEdge">
      <feGaussianBlur in="SourceGraphic" stdDeviation="0.5"/>
    </filter>
  </defs>
  <!-- Main scoop - organic blob shape -->
  <path d="M 60,8 C 82,6 100,16 106,32 C 112,48 108,62 100,72 
           C 96,78 88,85 80,88 Q 74,92 68,94 Q 58,96 48,92 
           C 36,88 26,78 20,68 C 12,56 10,40 16,26 
           C 22,14 38,6 60,8 Z" 
        fill="url(#vg)" stroke="#D4C488" stroke-width="1.2"/>
  <!-- Ice cream texture - lumpy surface bumps -->
  <path d="M 35,22 C 42,16 58,18 55,28 C 52,36 38,34 35,22 Z" fill="#FFF8DA" opacity="0.6"/>
  <path d="M 65,20 C 78,18 88,28 82,38 C 76,44 62,36 65,20 Z" fill="#FFFAE0" opacity="0.5"/>
  <path d="M 28,42 C 36,36 50,40 46,52 C 42,60 26,54 28,42 Z" fill="#FFF6D0" opacity="0.45"/>
  <path d="M 72,48 C 82,42 96,52 88,62 C 82,68 68,60 72,48 Z" fill="#FFF4C8" opacity="0.4"/>
  <path d="M 48,60 C 58,55 72,62 66,72 C 60,80 42,72 48,60 Z" fill="#F0E0A0" opacity="0.35"/>
  <!-- Melty drip on the side -->
  <path d="M 92,68 Q 96,76 94,86 Q 92,92 88,90 Q 90,82 88,74 Z" fill="#F0DCA0" opacity="0.6" stroke="#D4C488" stroke-width="0.6"/>
  <path d="M 30,72 Q 26,80 28,88 Q 30,92 34,88 Q 32,82 34,76 Z" fill="#F0DCA0" opacity="0.5" stroke="#D4C488" stroke-width="0.6"/>
  <!-- Highlight -->
  <path d="M 38,18 C 48,12 58,16 52,28 C 46,36 32,28 38,18 Z" fill="url(#vh)"/>
  <!-- Bottom shadow -->
  <path d="M 60,8 C 82,6 100,16 106,32 C 112,48 108,62 100,72 
           C 96,78 88,85 80,88 Q 74,92 68,94 Q 58,96 48,92 
           C 36,88 26,78 20,68 C 12,56 10,40 16,26 
           C 22,14 38,6 60,8 Z" 
        fill="url(#vs)"/>
  <!-- Vanilla bean specks scattered naturally -->
  <g fill="#8B7040" opacity="0.5">
    <ellipse cx="42" cy="48" rx="1.2" ry="0.6" transform="rotate(-20 42 48)"/>
    <ellipse cx="68" cy="34" rx="1.0" ry="0.5" transform="rotate(15 68 34)"/>
    <ellipse cx="55" cy="72" rx="1.3" ry="0.6" transform="rotate(-10 55 72)"/>
    <ellipse cx="80" cy="58" rx="1.1" ry="0.5" transform="rotate(30 80 58)"/>
    <ellipse cx="36" cy="64" rx="0.9" ry="0.5" transform="rotate(-5 36 64)"/>
    <ellipse cx="62" cy="52" rx="1.0" ry="0.5" transform="rotate(20 62 52)"/>
    <ellipse cx="48" cy="30" rx="1.1" ry="0.5" transform="rotate(-25 48 30)"/>
    <ellipse cx="78" cy="42" rx="0.8" ry="0.4" transform="rotate(10 78 42)"/>
  </g>
</svg>
