<svg xmlns="http://www.w3.org/2000/svg" viewBox="0 0 110 90" width="110" height="90">
  <defs>
    <linearGradient id="cr" x1="0%" y1="0%" x2="0%" y2="100%">
      <stop offset="0%" stop-color="#E8A820"/>
      <stop offset="50%" stop-color="#D09018"/>
      <stop offset="100%" stop-color="#A87010"/>
    </linearGradient>
  </defs>
  <!-- Thick gooey caramel drizzle lines -->
  <path d="M 8,20 Q 22,6 36,22 Q 50,38 64,18 Q 78,0 92,20 Q 102,34 108,16" 
        fill="none" stroke="url(#cr)" stroke-width="6" stroke-linecap="round" opacity="0.92"/>
  <path d="M 4,44 Q 20,28 36,46 Q 52,62 68,40 Q 82,22 98,44 Q 106,54 110,40" 
        fill="none" stroke="url(#cr)" stroke-width="5" stroke-linecap="round" opacity="0.88"/>
  <path d="M 10,66 Q 26,50 42,68 Q 56,82 72,62 Q 86,44 100,66" 
        fill="none" stroke="url(#cr)" stroke-width="4.5" stroke-linecap="round" opacity="0.82"/>
  <!-- Shiny highlights on drizzle -->
  <path d="M 12,18 Q 22,8 34,20" fill="none" stroke="#F0C840" stroke-width="2" stroke-linecap="round" opacity="0.45"/>
  <path d="M 8,42 Q 18,30 32,44" fill="none" stroke="#F0C840" stroke-width="1.8" stroke-linecap="round" opacity="0.38"/>
  <path d="M 14,64 Q 24,52 38,66" fill="none" stroke="#F0C840" stroke-width="1.5" stroke-linecap="round" opacity="0.32"/>
  <!-- Drip pooling -->
  <ellipse cx="92" cy="22" rx="5" ry="3" fill="#D09018" opacity="0.5"/>
</svg>
