<svg xmlns="http://www.w3.org/2000/svg" viewBox="0 0 110 90" width="110" height="90">
  <defs>
    <linearGradient id="chsc" x1="0%" y1="0%" x2="0%" y2="100%">
      <stop offset="0%" stop-color="#5C3018"/>
      <stop offset="50%" stop-color="#4A2210"/>
      <stop offset="100%" stop-color="#3A1808"/>
    </linearGradient>
  </defs>
  <!-- Thick gooey chocolate drizzle -->
  <path d="M 8,20 Q 22,4 38,24 Q 52,40 66,16 Q 80,-2 96,22 Q 104,36 110,18" 
        fill="none" stroke="url(#chsc)" stroke-width="6.5" stroke-linecap="round" opacity="0.92"/>
  <path d="M 4,46 Q 20,28 38,48 Q 54,64 70,42 Q 84,22 100,46 Q 108,56 112,42" 
        fill="none" stroke="url(#chsc)" stroke-width="5.5" stroke-linecap="round" opacity="0.88"/>
  <path d="M 10,68 Q 26,50 44,70 Q 58,84 74,64 Q 88,46 102,68" 
        fill="none" stroke="url(#chsc)" stroke-width="5" stroke-linecap="round" opacity="0.82"/>
  <!-- Glossy highlights -->
  <path d="M 12,18 Q 24,6 36,22" fill="none" stroke="#7B4828" stroke-width="2.2" stroke-linecap="round" opacity="0.4"/>
  <path d="M 8,44 Q 20,30 34,46" fill="none" stroke="#7B4828" stroke-width="2" stroke-linecap="round" opacity="0.35"/>
  <path d="M 14,66 Q 26,52 40,68" fill="none" stroke="#7B4828" stroke-width="1.8" stroke-linecap="round" opacity="0.3"/>
</svg>
